PathFileType	4	(X/Y/Z)	/Users/itak/Documents/Research/Walk-IL/dataset/trc/00475_00167.trc
DataRate	CameraRate	NumFrames	NumMarkers	Units	OrigDataRate	OrigDataStartFrame	OrigNumFrames
100.000000	100.000000	4	53	mm	100.000000	475	543
Frame#	Time	RPSI			LPSI			L3			STRN			T10			C7			CLAV			RBAK			LBAK			LSHO			LUPA			LAEL			LAOL			LWPS			LFRA			LIFD			LHPS			LHTS			RSHO			RUPA			RAEL			RAOL			RWTS			RWPS			RFRA			RIFD			RHTS			RHPS			RBHD			LFHD			RFHD			LBHD			LHIP			RHIP			RASI			LASI			LKNE			LTHI			LANK			LTIP			LTOE			LMT1			LMT5			LHEE			RKNE			RTHI			RANK			RTIP			RTOE			RMT1			RMT5			RHEE			LWTS			
		X1	Y1	Z1	X2	Y2	Z2	X3	Y3	Z3	X4	Y4	Z4	X5	Y5	Z5	X6	Y6	Z6	X7	Y7	Z7	X8	Y8	Z8	X9	Y9	Z9	X10	Y10	Z10	X11	Y11	Z11	X12	Y12	Z12	X13	Y13	Z13	X14	Y14	Z14	X15	Y15	Z15	X16	Y16	Z16	X17	Y17	Z17	X18	Y18	Z18	X19	Y19	Z19	X20	Y20	Z20	X21	Y21	Z21	X22	Y22	Z22	X23	Y23	Z23	X24	Y24	Z24	X25	Y25	Z25	X26	Y26	Z26	X27	Y27	Z27	X28	Y28	Z28	X29	Y29	Z29	X30	Y30	Z30	X31	Y31	Z31	X32	Y32	Z32	X33	Y33	Z33	X34	Y34	Z34	X35	Y35	Z35	X36	Y36	Z36	X37	Y37	Z37	X38	Y38	Z38	X39	Y39	Z39	X40	Y40	Z40	X41	Y41	Z41	X42	Y42	Z42	X43	Y43	Z43	X44	Y44	Z44	X45	Y45	Z45	X46	Y46	Z46	X47	Y47	Z47	X48	Y48	Z48	X49	Y49	Z49	X50	Y50	Z50	X51	Y51	Z51	X52	Y52	Z52	X53	Y53	Z53	

476	4.75	-547.6650390625	966.071533203125	-512.2909545898438	-545.0133666992188	962.3484497070312	-369.2978515625	-561.5758056640625	1063.14794921875	-452.3644714355469	-828.03466796875	1261.735961914062	-430.033447265625	-541.5040893554688	1184.796142578125	-442.69677734375	-603.0146484375	1455.582885742188	-449.8891296386719	-788.8345947265625	1373.979125976562	-429.4017333984375	-546.859375	1333.8759765625	-546.1356811523438	-565.59130859375	1406.323852539062	-350.8592834472656	-666.1036987304688	1430.900512695312	-271.6385803222656	-665.75830078125	1321.300537109375	-167.0075073242188	-722.7337646484375	1122.505493164062	-107.3641738891602	-645.3822021484375	1082.27099609375	-163.6762390136719	-826.5717163085938	932.2421264648438	-86.26587677001953	-771.78662109375	1047.136840820312	-94.15186309814453	-934.3125	820.7372436523438	-118.1290664672852	-864.943359375	867.4544677734375	-77.30276489257812	-912.5448608398438	892.4510498046875	-125.8616714477539	-676.02880859375	1428.787353515625	-605.267822265625	-659.9684448242188	1370.674194335938	-682.1324462890625	-666.9266357421875	1086.637939453125	-752.7387084960938	-617.6699829101562	1063.231079101562	-712.2507934570312	-795.4259033203125	896.6204833984375	-706.4932250976562	-735.1666870117188	873.4114379882812	-766.7767333984375	-677.9620971679688	1028.957397460938	-763.32080078125	-820.7567138671875	743.029052734375	-713.9239501953125	-825.1171875	803.2840576171875	-716.5061645507812	-763.1248779296875	789.4569091796875	-762.0492553710938	-729.4390869140625	1658.183227539062	-524.8840942382812	-842.888916015625	1643.846557617188	-352.7515563964844	-860.9039916992188	1649.048706054688	-481.878662109375	-690.82421875	1658.900512695312	-351.7373962402344	-683.1411743164062	862.1234741210938	-252.6911163330078	-669.676025390625	869.593994140625	-651.8212890625	-773.7694091796875	911.59033203125	-585.032958984375	-780.122314453125	904.9263305664062	-329.36181640625	-739.7568969726562	446.693359375	-299.5348510742188	-746.501953125	602.73046875	-275.9573974609375	-633.0714721679688	44.15864562988281	-312.8739318847656	-723.590087890625	292.1024169921875	-291.7723693847656	-864.2724609375	40.40612411499023	-395.6102294921875	-784.7607421875	47.9876823425293	-418.234130859375	-786.8432006835938	44.36371994018555	-303.3993530273438	-585.1021728515625	49.46316146850586	-374.49951171875	-720.0747680664062	478.6192016601562	-644.5557861328125	-722.2855224609375	739.114990234375	-663.646728515625	-672.3846435546875	50.6360969543457	-679.7445068359375	-723.5494384765625	339.26904296875	-665.191650390625	-879.4608154296875	47.47172164916992	-610.033935546875	-813.0597534179688	49.84828186035156	-580.6744995117188	-806.0757446289062	49.10874557495117	-688.1396484375	-603.1190795898438	46.20733261108398	-642.9290771484375	-863.1054077148438	959.496826171875	-145.2215728759766	
477	4.76	-550.51220703125	965.3705444335938	-513.6162719726562	-547.8611450195312	962.3497924804688	-370.731201171875	-564.2311401367188	1062.1953125	-454.4825744628906	-830.2774047851562	1261.1201171875	-430.9619140625	-543.8988037109375	1184.001708984375	-445.5339660644531	-605.0499267578125	1454.747924804688	-452.596435546875	-790.9652099609375	1373.32373046875	-430.4944763183594	-549.8805541992188	1332.855590820312	-549.3433227539062	-566.9778442382812	1405.511474609375	-353.8268432617188	-666.8338012695312	1430.25048828125	-273.7573852539062	-665.5831298828125	1320.603393554688	-169.0687561035156	-722.1181640625	1121.813842773438	-108.6589126586914	-645.4691162109375	1081.532958984375	-165.9271545410156	-826.1964721679688	931.6748657226562	-86.92902374267578	-771.1743774414062	1046.51416015625	-95.10631561279297	-934.6959838867188	820.6528930664062	-118.0471115112305	-864.6685180664062	866.9179077148438	-77.82662963867188	-912.8011474609375	892.3204345703125	-125.6398315429688	-679.6520385742188	1427.68408203125	-607.3836669921875	-664.788330078125	1369.44677734375	-684.4295654296875	-674.0123291015625	1085.457153320312	-754.863525390625	-624.015869140625	1062.10302734375	-715.2398071289062	-800.8135375976562	894.6765747070312	-707.1148071289062	-741.3306884765625	871.9932861328125	-768.3910522460938	-685.0361328125	1027.744750976562	-765.3604125976562	-825.197509765625	740.938720703125	-714.5733032226562	-830.0701293945312	801.2122192382812	-716.8538818359375	-768.7351684570312	787.8264770507812	-763.4663696289062	-731.2900390625	1657.653198242188	-526.5636596679688	-843.8494262695312	1643.555053710938	-353.8683471679688	-862.5827026367188	1648.919189453125	-482.9456787109375	-691.7583618164062	1658.132568359375	-353.5953369140625	-685.59619140625	862.38330078125	-253.4302215576172	-672.08544921875	867.9971923828125	-652.5194091796875	-776.4210815429688	909.8305053710938	-586.0421142578125	-782.8045654296875	904.6420288085938	-330.218017578125	-740.5560913085938	446.5018615722656	-300.1880493164062	-747.7885131835938	602.2685546875	-276.3171997070312	-633.0463256835938	44.19221878051758	-312.9169311523438	-724.0733642578125	292.05810546875	-292.2807312011719	-864.2794799804688	40.43398666381836	-395.603515625	-784.70751953125	47.92769622802734	-418.3263549804688	-786.8019409179688	44.44059753417969	-303.4989929199219	-585.0579833984375	49.34337615966797	-374.5355834960938	-718.9217529296875	477.07080078125	-645.26513671875	-723.5075073242188	737.5894165039062	-664.429931640625	-671.921630859375	49.43094635009766	-681.1257934570312	-722.4193115234375	338.0050048828125	-665.9745483398438	-878.4420166015625	47.05702209472656	-609.4007568359375	-811.9016723632812	49.61944580078125	-580.7159423828125	-805.9891357421875	48.34627151489258	-688.6663208007812	-602.2911376953125	44.85208511352539	-644.814208984375	-863.331787109375	959.2823486328125	-145.3451385498047	
478	4.77	-553.2481079101562	964.6344604492188	-514.9932861328125	-550.572021484375	962.3402709960938	-372.2007751464844	-566.7969360351562	1061.242553710938	-456.6240234375	-832.4454345703125	1260.53076171875	-432.0230102539062	-546.2517700195312	1183.209594726562	-448.3446044921875	-607.0109252929688	1453.951293945312	-455.3045654296875	-793.0267944335938	1372.690185546875	-431.6694641113281	-552.7484741210938	1331.864990234375	-552.4903564453125	-568.334716796875	1404.73583984375	-356.7731323242188	-667.5735473632812	1429.59765625	-275.9198303222656	-665.4368896484375	1319.871704101562	-171.1948394775391	-721.3566284179688	1121.02490234375	-110.0767211914062	-645.3998413085938	1080.786254882812	-168.3085174560547	-825.3868408203125	930.8486328125	-87.69484710693359	-770.303955078125	1045.723999023438	-96.16264343261719	-934.5146484375	820.1846923828125	-118.0783767700195	-863.8662719726562	866.0718994140625	-78.46551513671875	-912.5447387695312	891.8377075195312	-125.5439987182617	-683.1182250976562	1426.618774414062	-609.5289306640625	-669.4127197265625	1368.232543945312	-686.7163696289062	-681.0181884765625	1084.332763671875	-756.9409790039062	-630.3184204101562	1060.987670898438	-718.2094116210938	-806.1107788085938	892.7633666992188	-707.8306274414062	-747.4279174804688	870.6444702148438	-770.1080932617188	-692.0338745117188	1026.59765625	-767.3898315429688	-829.5485229492188	738.897705078125	-715.4400024414062	-834.8973999023438	799.1473999023438	-717.3258056640625	-774.2603759765625	786.269775390625	-765.0687255859375	-733.0897827148438	1657.121948242188	-528.3409423828125	-844.7510375976562	1643.295654296875	-355.0740356445312	-864.1905517578125	1648.7939453125	-484.1033935546875	-692.630126953125	1657.398681640625	-355.5563049316406	-687.9851684570312	862.6649780273438	-254.2306213378906	-674.4290771484375	866.3995361328125	-653.2755126953125	-778.9904174804688	908.1220092773438	-587.162353515625	-785.3922729492188	904.4110717773438	-331.1952819824219	-741.2192993164062	446.3541870117188	-300.8929748535156	-749.0022583007812	601.8272705078125	-276.7649841308594	-633.0174560546875	44.23122787475586	-312.971435546875	-724.4600830078125	292.0681457519531	-292.8083801269531	-864.2756958007812	40.45404434204102	-395.6042785644531	-784.65087890625	47.86785125732422	-418.4214782714844	-786.7615356445312	44.52214050292969	-303.5982971191406	-585.0184936523438	49.22805786132812	-374.5913696289062	-717.5971069335938	475.5863342285156	-645.8833618164062	-724.8457641601562	735.9884033203125	-665.1729125976562	-671.4002075195312	48.31442642211914	-682.0507202148438	-721.108154296875	336.77294921875	-666.5623168945312	-877.5321044921875	46.90277481079102	-608.7820434570312	-810.8629150390625	49.48025894165039	-580.6798706054688	-805.7562866210938	47.84381484985352	-689.0162353515625	-601.4601440429688	43.5236701965332	-646.0950317382812	-863.1475830078125	958.76904296875	-145.5572052001953	
479	4.78	-555.8994140625	963.8870849609375	-516.4345703125	-553.1537475585938	962.3280029296875	-373.7087097167969	-569.2809448242188	1060.309692382812	-458.7795104980469	-834.5328369140625	1259.984008789062	-433.2007141113281	-548.5523071289062	1182.431396484375	-451.1271057128906	-608.8933715820312	1453.20654296875	-458.0056457519531	-795.0059814453125	1372.096313476562	-432.9288635253906	-555.4716186523438	1330.926147460938	-555.57421875	-569.6546630859375	1404.01513671875	-359.6905517578125	-668.3268432617188	1428.956787109375	-278.1109008789062	-665.3278198242188	1319.127197265625	-173.3815612792969	-720.4837646484375	1120.162963867188	-111.631462097168	-645.2142333984375	1080.047973632812	-170.8179626464844	-824.162353515625	929.7848510742188	-88.56608581542969	-769.2081909179688	1044.789184570312	-97.33065032958984	-933.7618408203125	819.3255004882812	-118.2195510864258	-862.550537109375	864.9371948242188	-79.21269226074219	-911.7759399414062	890.998291015625	-125.5918045043945	-686.4115600585938	1425.622314453125	-611.6926879882812	-673.819091796875	1367.06591796875	-688.986328125	-687.8782348632812	1083.293212890625	-758.9472045898438	-636.530517578125	1059.917114257812	-721.1182861328125	-811.3081665039062	890.9353637695312	-708.6386108398438	-753.4347534179688	869.4110107421875	-771.9024658203125	-698.890869140625	1025.545532226562	-769.3869018554688	-833.8291625976562	736.9600219726562	-716.5340576171875	-839.6150512695312	797.1524047851562	-717.9644775390625	-779.7062377929688	784.8364868164062	-766.8394775390625	-734.8411254882812	1656.603881835938	-530.2103271484375	-845.6115112304688	1643.091186523438	-356.3706970214844	-865.7303466796875	1648.682983398438	-485.3464660644531	-693.4487915039062	1656.718505859375	-357.6158752441406	-690.3045043945312	862.9693603515625	-255.1054229736328	-676.7225341796875	864.836669921875	-654.1058959960938	-781.49560546875	906.4942016601562	-588.3772583007812	-787.8847045898438	904.2351684570312	-332.2843627929688	-741.7061157226562	446.247802734375	-301.6150817871094	-750.1124877929688	601.4240112304688	-277.2811279296875	-632.9829711914062	44.26863479614258	-313.03369140625	-724.7230834960938	292.1327819824219	-293.3258972167969	-864.2559204101562	40.46700286865234	-395.6062316894531	-784.5947875976562	47.8116455078125	-418.5093078613281	-786.7206420898438	44.60440826416016	-303.6905212402344	-584.98291015625	49.11865615844727	-374.6613159179688	-716.1295166015625	474.2022399902344	-646.4016723632812	-726.2537841796875	734.3468017578125	-665.89404296875	-670.8991088867188	47.34770965576172	-682.5038452148438	-719.6744384765625	335.6155395507812	-666.9547119140625	-876.8546752929688	46.90591430664062	-608.2407836914062	-810.0563354492188	49.37696838378906	-580.5965576171875	-805.4747314453125	47.55512237548828	-689.2152709960938	-600.7415161132812	42.28421783447266	-646.7535400390625	-862.557861328125	957.9541625976562	-145.8809967041016	
